<svg width="112" height="81" viewBox="0 0 112 81" fill="none" xmlns="http://www.w3.org/2000/svg">
<g clip-path="url(#clip0_96_5675)">
<path d="M96.2915 7.4501L99.1814 2.43155C96.4281 0.93043 93.2785 0.0555149 89.9297 0V5.77799C92.2264 5.83129 94.391 6.42863 96.2915 7.4501Z" fill="#81514B"/>
<path d="M102.732 11.8736L106.414 9.74631C104.717 6.97279 102.351 4.6456 99.5394 2.98682L97.4263 6.65746C99.5887 7.94985 101.411 9.74187 102.732 11.8759V11.8736Z" fill="#81514B"/>
<path d="M107.268 19.6473H109.287C109.231 16.2631 108.318 13.0854 106.751 10.3208L105.003 11.3312C106.398 13.8027 107.212 16.634 107.268 19.6473Z" fill="#81514B"/>
<path d="M89.3592 32.0494V28.2743C86.4156 28.1966 83.8368 26.64 82.3505 24.3306L79.0576 26.2336C81.2066 29.6644 85.0076 31.9694 89.3592 32.0494Z" fill="#81514B"/>
<path d="M89.5936 7.46289C82.7483 7.46289 77.1968 12.9677 77.1968 19.7606C77.1968 21.899 77.7497 23.9086 78.7167 25.6607L82.0073 23.7598C81.3649 22.5674 81.0022 21.2062 81.0022 19.7628C81.0022 15.064 84.8547 11.2401 89.5936 11.2401C90.9792 11.2401 92.2888 11.5688 93.4483 12.1506L95.4137 8.90406C93.6789 7.98695 91.6978 7.46511 89.5936 7.46511V7.46289Z" fill="#81514B"/>
<path d="M77.416 27.1738L74.582 28.8104C76.0751 31.2375 78.148 33.2738 80.6058 34.7327L82.231 31.9104C80.2701 30.7357 78.6158 29.108 77.416 27.1738Z" fill="#81514B"/>
<path d="M75.305 20.0762H72.0278C72.0838 23.0384 72.8829 25.8209 74.2551 28.248L77.0846 26.6114C75.9967 24.6661 75.3587 22.4411 75.305 20.0762Z" fill="#81514B"/>
<path d="M82.7995 32.2358L81.1743 35.0582C83.5897 36.3728 86.3497 37.1367 89.2799 37.1922V33.9413C86.9385 33.888 84.7335 33.2795 82.7995 32.2381V32.2358Z" fill="#81514B"/>
<path d="M89.936 33.9394V37.1903C99.3736 37.0171 107.014 29.4382 107.188 20.0762H103.911C103.739 27.6462 97.5671 33.7684 89.936 33.9394Z" fill="#81514B"/>
<path d="M109.935 24.1441C109.417 24.1441 108.965 24.4194 108.715 24.828L105.09 23.8398L104.914 24.4816L108.513 25.4631C108.513 25.4942 108.509 25.5275 108.509 25.5586C108.509 26.3402 109.149 26.9753 109.937 26.9753C110.725 26.9753 111.365 26.3402 111.365 25.5586C111.365 24.7769 110.725 24.1418 109.937 24.1418L109.935 24.1441ZM109.935 26.6422C109.332 26.6422 108.842 26.1581 108.842 25.5586C108.842 24.959 109.33 24.4749 109.935 24.4749C110.539 24.4749 111.027 24.959 111.027 25.5586C111.027 26.1581 110.539 26.6422 109.935 26.6422Z" fill="#81514B"/>
<path d="M109.935 24.4775C109.333 24.4775 108.842 24.9616 108.842 25.5612C108.842 26.1608 109.33 26.6448 109.935 26.6448C110.539 26.6448 111.027 26.1608 111.027 25.5612C111.027 24.9616 110.539 24.4775 109.935 24.4775ZM109.935 26.3095C109.518 26.3095 109.178 25.9742 109.178 25.559C109.178 25.1437 109.516 24.8084 109.935 24.8084C110.353 24.8084 110.691 25.1437 110.691 25.559C110.691 25.9742 110.353 26.3095 109.935 26.3095Z" fill="#81514B"/>
<path d="M104.114 33.2488C103.863 33.2488 103.628 33.3132 103.422 33.4264L100.691 30.7173L100.217 31.1881L102.928 33.8772C102.775 34.1015 102.686 34.3724 102.686 34.6633C102.686 35.4449 103.326 36.08 104.114 36.08C104.902 36.08 105.542 35.4449 105.542 34.6633C105.542 33.8816 104.902 33.2465 104.114 33.2465V33.2488ZM104.114 35.7469C103.512 35.7469 103.022 35.2628 103.022 34.6633C103.022 34.0637 103.51 33.5796 104.114 33.5796C104.718 33.5796 105.206 34.0637 105.206 34.6633C105.206 35.2628 104.718 35.7469 104.114 35.7469Z" fill="#81514B"/>
<path d="M104.114 33.582C103.512 33.582 103.022 34.0661 103.022 34.6657C103.022 35.2652 103.51 35.7493 104.114 35.7493C104.719 35.7493 105.207 35.2652 105.207 34.6657C105.207 34.0661 104.719 33.582 104.114 33.582ZM104.114 35.414C103.698 35.414 103.358 35.0787 103.358 34.6635C103.358 34.2482 103.696 33.9129 104.114 33.9129C104.533 33.9129 104.871 34.2482 104.871 34.6635C104.871 35.0787 104.533 35.414 104.114 35.414Z" fill="#81514B"/>
<path d="M89.9297 31.1865V37.1821C99.3874 37.0067 107.012 29.4234 107.159 20.0347H101.115C100.97 26.1036 96.0386 31.0133 89.9297 31.1865Z" fill="#81514B"/>
<path d="M89.2573 17.2295V13.439C85.8951 13.6122 83.2134 16.3813 83.2134 19.7588C83.2134 23.1363 85.8951 25.9054 89.2573 26.0786V22.288C87.9971 22.1237 87.0188 21.0534 87.0188 19.7588C87.0188 18.4642 87.9971 17.3938 89.2573 17.2295ZM85.2101 21.1244C84.4692 21.1244 83.867 20.5271 83.867 19.7921C83.867 19.0571 84.4692 18.4597 85.2101 18.4597C85.9511 18.4597 86.5532 19.0571 86.5532 19.7921C86.5532 20.5271 85.9511 21.1244 85.2101 21.1244Z" fill="#81514B"/>
<path d="M103.416 13.7083C102.152 13.7083 101.122 14.7297 101.122 15.9844C101.122 16.1176 101.135 16.2486 101.158 16.3752L95.6867 17.8896C95.4651 17.1813 95.1181 16.5284 94.6771 15.9511L97.0231 13.6639C97.2022 13.766 97.4104 13.826 97.632 13.826C98.3125 13.826 98.8631 13.2797 98.8631 12.6046C98.8631 11.9296 98.3125 11.3833 97.632 11.3833C96.9515 11.3833 96.4008 11.9296 96.4008 12.6046C96.4008 12.8156 96.4545 13.0154 96.5508 13.1886L94.2429 15.4359C93.1505 14.279 91.6238 13.5262 89.9248 13.4396V17.2301C91.1851 17.3945 92.1633 18.4648 92.1633 19.7594C92.1633 21.054 91.1851 22.1243 89.9248 22.2887V26.0792C93.287 25.906 95.9688 23.1369 95.9688 19.7594C95.9688 19.3397 95.9262 18.9311 95.8479 18.5358L101.366 17.0103C101.744 17.752 102.519 18.2627 103.412 18.2627C104.677 18.2627 105.706 17.2412 105.706 15.9866C105.706 14.732 104.677 13.7105 103.412 13.7105L103.416 13.7083ZM93.9966 21.1251C93.2557 21.1251 92.6535 20.5277 92.6535 19.7927C92.6535 19.0577 93.2557 18.4603 93.9966 18.4603C94.7376 18.4603 95.3397 19.0577 95.3397 19.7927C95.3397 20.5277 94.7376 21.1251 93.9966 21.1251ZM103.416 17.9274C102.335 17.9274 101.458 17.0569 101.458 15.9844C101.458 14.9118 102.335 14.0414 103.416 14.0414C104.497 14.0414 105.375 14.9118 105.375 15.9844C105.375 17.0569 104.497 17.9274 103.416 17.9274Z" fill="#81514B"/>
<path d="M103.416 14.0415C102.335 14.0415 101.458 14.912 101.458 15.9845C101.458 17.0571 102.335 17.9275 103.416 17.9275C104.497 17.9275 105.375 17.0571 105.375 15.9845C105.375 14.912 104.497 14.0415 103.416 14.0415ZM103.416 17.5945C102.521 17.5945 101.793 16.8728 101.793 15.9845C101.793 15.0963 102.521 14.3746 103.416 14.3746C104.312 14.3746 105.039 15.0963 105.039 15.9845C105.039 16.8728 104.312 17.5945 103.416 17.5945Z" fill="#81514B"/>
<path d="M93.9964 20.5696C94.4291 20.5696 94.7798 20.2216 94.7798 19.7923C94.7798 19.3631 94.4291 19.0151 93.9964 19.0151C93.5637 19.0151 93.2129 19.3631 93.2129 19.7923C93.2129 20.2216 93.5637 20.5696 93.9964 20.5696Z" fill="#81514B"/>
<path d="M98.0257 19.8717C98.0257 24.3817 94.415 28.0701 89.9111 28.2455V29.3558C95.0328 29.1804 99.145 24.9946 99.145 19.8717C99.145 19.8539 99.145 19.8361 99.145 19.8184H98.0257C98.0257 19.8361 98.0257 19.8539 98.0257 19.8717Z" fill="#81514B"/>
<path d="M89.5756 38.6959C79.1464 38.6959 70.6603 30.2776 70.6603 19.9319C70.6603 13.128 74.3292 7.15901 79.809 3.86808L79.2449 2.8999C73.4293 6.37958 69.541 12.7038 69.541 19.9319C69.541 30.9083 78.5107 39.8062 89.5756 39.8062C93.1192 39.8062 96.4456 38.8936 99.3332 37.2925L98.7669 36.3243C96.0426 37.8343 92.9087 38.6981 89.5734 38.6981L89.5756 38.6959Z" fill="#81514B"/>
<path d="M74.9108 19.4878L72.2246 19.4633C72.2291 19.0259 72.2492 18.5817 72.2895 18.1443L74.9668 18.3752C74.9332 18.7439 74.9153 19.1169 74.9131 19.4855L74.9108 19.4878ZM75.0563 17.5936L72.397 17.2161C72.4507 16.843 72.5179 16.4655 72.5984 16.0925C72.6119 16.0325 72.6253 15.9725 72.6387 15.9126L75.2578 16.5055C75.2466 16.5521 75.2376 16.5988 75.2264 16.6432C75.1593 16.9585 75.1011 17.2783 75.0563 17.5936ZM75.4525 15.7349L72.8671 15.0132C72.9857 14.5913 73.1245 14.1694 73.2767 13.7586L75.7973 14.6779C75.6697 15.0244 75.5533 15.3796 75.4525 15.7349ZM76.0927 13.9451L73.6259 12.8881C73.8005 12.484 73.9953 12.0843 74.2012 11.6979L76.5763 12.9459C76.4017 13.2701 76.2405 13.6076 76.0927 13.9474V13.9451ZM76.968 12.2575L74.6668 10.8807C74.8951 10.5054 75.1414 10.1346 75.3988 9.77708L77.5836 11.3271C77.3664 11.6268 77.1605 11.9399 76.968 12.2553V12.2575ZM78.0649 10.7008L75.9719 9.03096C76.2472 8.68899 76.5427 8.3559 76.8449 8.03613L78.8013 9.86146C78.5461 10.1302 78.2977 10.4122 78.0649 10.7008Z" fill="#81514B"/>
<path d="M89.5929 18.2043C89.3601 18.2043 89.1407 18.2554 88.9415 18.3464L74.8703 4.65198C75.0046 4.3522 75.0315 4.00579 74.9128 3.67048C74.6688 2.97543 73.9032 2.60903 73.2026 2.84886C72.5019 3.0909 72.1326 3.85035 72.3744 4.54539C72.6116 5.22045 73.3391 5.58463 74.0219 5.38478L88.1536 19.1392C88.0707 19.3301 88.0237 19.5389 88.0237 19.7587C88.0237 20.6181 88.7244 21.3131 89.5907 21.3131C90.457 21.3131 91.1576 20.6181 91.1576 19.7587C91.1576 18.8993 90.457 18.2043 89.5907 18.2043H89.5929Z" fill="#81514B"/>
<path d="M89.5756 38.6955C79.1464 38.6955 70.6603 30.2772 70.6603 19.9314C70.6603 9.58566 78.9673 1.35169 89.2443 1.17404V0.0615234C78.3316 0.236951 69.541 9.06382 69.541 19.9314C69.541 30.799 78.5107 39.8058 89.5756 39.8058C93.146 39.8058 96.4971 38.8776 99.4004 37.2543L98.8363 36.2839C96.0964 37.8161 92.9378 38.6955 89.5734 38.6955H89.5756Z" fill="#81514B"/>
</g>
<path d="M3.24943 43.7153V43.0367H18.2981L12.5621 58.8949L9.63781 50.8414L6.73605 58.8949L1 43.0367H1.71982L6.73605 56.9041L9.63781 48.8506L12.5621 56.9041L17.3309 43.7153H3.24943Z" fill="#81514B"/>
<path d="M22.0037 58.1936H29.3368L24.7255 47.267L19.8218 58.8722H19.1019L24.7255 45.5251L30.3491 58.8722H22.0037V58.1936Z" fill="#81514B"/>
<path d="M33.7027 45.7513H42.408L37.1218 58.3067V63.3967H36.447V58.3067L31.1608 45.7513H31.8806L36.7844 57.3566L41.3957 46.43H33.7027V45.7513Z" fill="#81514B"/>
<path d="M48.1706 58.8722H44.9314V45.7513H47.4058C49.1753 45.7513 50.51 46.0605 51.4097 46.6789C52.3245 47.2972 52.7819 48.1418 52.7819 49.2125C52.7819 50.4945 52.2195 51.422 51.0948 51.9951C51.9196 52.2816 52.5345 52.7115 52.9394 53.2846C53.3442 53.8426 53.5467 54.4911 53.5467 55.2301C53.5467 56.3159 53.0968 57.1982 52.197 57.8769C51.3123 58.5405 49.9701 58.8722 48.1706 58.8722ZM48.1706 58.1936C49.4902 58.1936 50.5999 57.9523 51.4997 57.4697C52.4145 56.9871 52.8719 56.2405 52.8719 55.2301C52.8719 54.7625 52.6994 54.2573 52.3545 53.7144C52.0096 53.1564 51.4772 52.7492 50.7574 52.4928L49.5877 52.0856L50.6674 51.52C51.0423 51.324 51.3722 51.0299 51.6572 50.6377C51.9571 50.2305 52.1071 49.7555 52.1071 49.2125C52.1071 48.2624 51.6572 47.5611 50.7574 47.1087C49.8576 46.6562 48.7404 46.43 47.4058 46.43H45.6062V58.1936H48.1706Z" fill="#81514B"/>
<path d="M58.1835 58.1936H65.5167L60.9053 47.267L56.0016 58.8722H55.2817L60.9053 45.5251L66.5289 58.8722H58.1835V58.1936Z" fill="#81514B"/>
<path d="M69.7475 57.4923C68.9377 56.4215 68.5328 54.6947 68.5328 52.3118C68.5328 49.9289 68.9377 48.2021 69.7475 47.1313C70.5573 46.0605 71.8995 45.5251 73.774 45.5251C75.6485 45.5251 76.9982 46.0454 77.823 47.0861L77.3281 47.5385C76.6683 46.6487 75.4836 46.2038 73.774 46.2038C73.0242 46.2038 72.3943 46.2867 71.8845 46.4526C71.3746 46.6034 70.9022 46.8975 70.4673 47.3349C70.0474 47.7572 69.7325 48.3831 69.5226 49.2125C69.3126 50.027 69.2076 51.06 69.2076 52.3118C69.2076 53.5636 69.3126 54.6042 69.5226 55.4337C69.7325 56.2481 70.0474 56.874 70.4673 57.3113C70.9022 57.7336 71.3746 58.0277 71.8845 58.1936C72.3943 58.3444 73.0242 58.4198 73.774 58.4198C75.4836 58.4198 76.6683 57.9749 77.3281 57.0851L77.823 57.5375C76.9982 58.5782 75.6485 59.0985 73.774 59.0985C71.8995 59.0985 70.5573 58.5631 69.7475 57.4923Z" fill="#81514B"/>
<path d="M81.1771 58.8722V45.7513H81.8519V58.8722H81.1771ZM89.5 58.8722L82.5717 51.9498L88.7802 45.7513H89.7474L83.539 51.9498L90.4672 58.8722H89.5Z" fill="#81514B"/>
<path d="M33.3325 30.9257H25.8312L33.5598 23.204H25.023V39.4603H34.8226V40.2223H24.2653V22.442H35.4035L27.6749 30.1637H33.3325V30.9257Z" fill="#81514B"/>
<path d="M40.7876 39.4603H48.6172L39.5752 23.7374V40.2223H38.8175V22.442H39.7015L49.1475 38.8761V22.442H49.9052V40.2223H40.7876V39.4603Z" fill="#81514B"/>
<path d="M54.3686 26.8363C54.3686 25.1937 54.7811 24.0084 55.6062 23.2802C56.4312 22.5521 57.7698 22.188 59.622 22.188C60.9185 22.188 61.9625 22.5267 62.7538 23.204C63.5452 23.8814 64.1177 24.9143 64.4713 26.3029L62.1224 28.0809H60.8848L63.6126 26.0235C63.259 24.8889 62.7454 24.093 62.0719 23.6358C61.4152 23.1786 60.5986 22.95 59.622 22.95C58.9485 22.95 58.376 22.9923 57.9045 23.077C57.4499 23.1617 56.9869 23.331 56.5154 23.585C56.0608 23.8221 55.7156 24.2116 55.4799 24.7534C55.2442 25.2953 55.1263 25.9896 55.1263 26.8363C55.1263 27.5813 55.4631 28.2418 56.1366 28.8175C56.8269 29.3932 57.6604 29.8843 58.637 30.2907C59.6136 30.6971 60.5902 31.112 61.5668 31.5353C62.5602 31.9587 63.3937 32.5006 64.0672 33.161C64.7575 33.8214 65.1027 34.5834 65.1027 35.447C65.1027 37.1404 64.6818 38.4019 63.8399 39.2317C63.0148 40.0614 61.592 40.4763 59.5715 40.4763C57.9214 40.4763 56.6249 40.1461 55.6819 39.4857C54.739 38.8083 54.0908 37.7669 53.7372 36.3614L54.4444 36.0566C54.7811 37.4283 55.3536 38.385 56.1618 38.9269C56.9869 39.4518 58.1234 39.7143 59.5715 39.7143C61.1879 39.7143 62.3834 39.401 63.158 38.7745C63.9493 38.1479 64.345 37.0388 64.345 35.447C64.345 34.7019 63.9998 34.0415 63.3095 33.4658C62.636 32.89 61.8025 32.399 60.8091 31.9926C59.8325 31.5861 58.8559 31.1713 57.8793 30.7479C56.9027 30.3246 56.0692 29.7827 55.3789 29.1223C54.7053 28.4619 54.3686 27.6999 54.3686 26.8363Z" fill="#81514B"/>
<path d="M19.0671 79.095H27.9299V65.5443L22.8687 76.4482L17.8074 65.5217V79.7737L17.1326 79.7511V63.9155H17.8074L22.8687 74.8421L27.9299 63.9381L28.6047 63.9155V79.7737L19.0671 79.7511V79.095Z" fill="#81514B"/>
<path d="M34.161 79.095H41.4941L36.8828 68.1685L31.979 79.7737H31.2592L36.8828 66.4266L42.5064 79.7737H34.161V79.095Z" fill="#81514B"/>
<path d="M45.725 78.3938C44.9152 77.323 44.5103 75.5961 44.5103 73.2133C44.5103 70.8304 44.9152 69.1036 45.725 68.0328C46.5348 66.962 47.8769 66.4266 49.7515 66.4266C51.626 66.4266 52.9757 66.9469 53.8004 67.9875L53.3056 68.44C52.6457 67.5502 51.461 67.1053 49.7515 67.1053C49.0017 67.1053 48.3718 67.1882 47.8619 67.3541C47.3521 67.5049 46.8797 67.799 46.4448 68.2364C46.0249 68.6586 45.71 69.2845 45.5 70.114C45.2901 70.9284 45.1851 71.9615 45.1851 73.2133C45.1851 74.465 45.2901 75.5056 45.5 76.3351C45.71 77.1495 46.0249 77.7754 46.4448 78.2128C46.8797 78.6351 47.3521 78.9291 47.8619 79.095C48.3718 79.2459 49.0017 79.3213 49.7515 79.3213C51.461 79.3213 52.6457 78.8764 53.3056 77.9866L53.8004 78.439C52.9757 79.4796 51.626 79.9999 49.7515 79.9999C47.8769 79.9999 46.5348 79.4645 45.725 78.3938Z" fill="#81514B"/>
<path d="M65.2525 79.7737H64.5777V73.2133H57.8294V79.7737H57.1546V66.6528H57.8294V72.5346H64.5777V66.6528H65.2525V79.7737Z" fill="#81514B"/>
<path d="M69.522 66.6528H70.1969V79.7737H69.522V66.6528Z" fill="#81514B"/>
<path d="M74.4646 79.7737V66.6528H75.1395L82.4726 78.5295V66.6528H83.1474V79.7737H82.4726L75.1395 67.8744V79.7737H74.4646Z" fill="#81514B"/>
<path d="M96.153 78.439C95.3282 79.4796 93.9786 79.9999 92.104 79.9999C90.2295 79.9999 88.8873 79.4645 88.0775 78.3938C87.2678 77.323 86.8629 75.5961 86.8629 73.2133C86.8629 70.8304 87.2678 69.1036 88.0775 68.0328C88.8873 66.962 90.2295 66.4266 92.104 66.4266C94.2785 66.4266 95.7556 67.143 96.5354 68.5757L91.0243 73.2133H89.9671L95.6581 68.44C94.9983 67.5502 93.8136 67.1053 92.104 67.1053C91.3542 67.1053 90.7244 67.1882 90.2145 67.3541C89.7046 67.5049 89.2323 67.799 88.7974 68.2364C88.3775 68.6586 88.0626 69.2845 87.8526 70.114C87.6427 70.9284 87.5377 71.9615 87.5377 73.2133C87.5377 74.465 87.6427 75.5056 87.8526 76.3351C88.0626 77.1495 88.3775 77.7754 88.7974 78.2128C89.2323 78.6351 89.7046 78.9291 90.2145 79.095C90.7244 79.2459 91.3542 79.3213 92.104 79.3213C93.8136 79.3213 94.9983 78.8764 95.6581 77.9866L96.153 78.439Z" fill="#81514B"/>
<path d="M3.24943 43.7153V43.0367H18.2981L12.5621 58.8949L9.63781 50.8414L6.73605 58.8949L1 43.0367H1.71982L6.73605 56.9041L9.63781 48.8506L12.5621 56.9041L17.3309 43.7153H3.24943Z" stroke="#81514B" stroke-width="0.958742" stroke-linejoin="round"/>
<path d="M22.0037 58.1936H29.3368L24.7255 47.267L19.8218 58.8722H19.1019L24.7255 45.5251L30.3491 58.8722H22.0037V58.1936Z" stroke="#81514B" stroke-width="0.958742" stroke-linejoin="round"/>
<path d="M33.7027 45.7513H42.408L37.1218 58.3067V63.3967H36.447V58.3067L31.1608 45.7513H31.8806L36.7844 57.3566L41.3957 46.43H33.7027V45.7513Z" stroke="#81514B" stroke-width="0.958742" stroke-linejoin="round"/>
<path d="M48.1706 58.8722H44.9314V45.7513H47.4058C49.1753 45.7513 50.51 46.0605 51.4097 46.6789C52.3245 47.2972 52.7819 48.1418 52.7819 49.2125C52.7819 50.4945 52.2195 51.422 51.0948 51.9951C51.9196 52.2816 52.5345 52.7115 52.9394 53.2846C53.3442 53.8426 53.5467 54.4911 53.5467 55.2301C53.5467 56.3159 53.0968 57.1982 52.197 57.8769C51.3123 58.5405 49.9701 58.8722 48.1706 58.8722ZM48.1706 58.1936C49.4902 58.1936 50.5999 57.9523 51.4997 57.4697C52.4145 56.9871 52.8719 56.2405 52.8719 55.2301C52.8719 54.7625 52.6994 54.2573 52.3545 53.7144C52.0096 53.1564 51.4772 52.7492 50.7574 52.4928L49.5877 52.0856L50.6674 51.52C51.0423 51.324 51.3722 51.0299 51.6572 50.6377C51.9571 50.2305 52.1071 49.7555 52.1071 49.2125C52.1071 48.2624 51.6572 47.5611 50.7574 47.1087C49.8576 46.6562 48.7404 46.43 47.4058 46.43H45.6062V58.1936H48.1706Z" stroke="#81514B" stroke-width="0.958742" stroke-linejoin="round"/>
<path d="M58.1835 58.1936H65.5167L60.9053 47.267L56.0016 58.8722H55.2817L60.9053 45.5251L66.5289 58.8722H58.1835V58.1936Z" stroke="#81514B" stroke-width="0.958742" stroke-linejoin="round"/>
<path d="M69.7475 57.4923C68.9377 56.4215 68.5328 54.6947 68.5328 52.3118C68.5328 49.9289 68.9377 48.2021 69.7475 47.1313C70.5573 46.0605 71.8995 45.5251 73.774 45.5251C75.6485 45.5251 76.9982 46.0454 77.823 47.0861L77.3281 47.5385C76.6683 46.6487 75.4836 46.2038 73.774 46.2038C73.0242 46.2038 72.3943 46.2867 71.8845 46.4526C71.3746 46.6034 70.9022 46.8975 70.4673 47.3349C70.0474 47.7572 69.7325 48.3831 69.5226 49.2125C69.3126 50.027 69.2076 51.06 69.2076 52.3118C69.2076 53.5636 69.3126 54.6042 69.5226 55.4337C69.7325 56.2481 70.0474 56.874 70.4673 57.3113C70.9022 57.7336 71.3746 58.0277 71.8845 58.1936C72.3943 58.3444 73.0242 58.4198 73.774 58.4198C75.4836 58.4198 76.6683 57.9749 77.3281 57.0851L77.823 57.5375C76.9982 58.5782 75.6485 59.0985 73.774 59.0985C71.8995 59.0985 70.5573 58.5631 69.7475 57.4923Z" stroke="#81514B" stroke-width="0.958742" stroke-linejoin="round"/>
<path d="M81.1771 58.8722V45.7513H81.8519V58.8722H81.1771ZM89.5 58.8722L82.5717 51.9498L88.7802 45.7513H89.7474L83.539 51.9498L90.4672 58.8722H89.5Z" stroke="#81514B" stroke-width="0.958742" stroke-linejoin="round"/>
<path d="M33.3325 30.9257H25.8312L33.5598 23.204H25.023V39.4603H34.8226V40.2223H24.2653V22.442H35.4035L27.6749 30.1637H33.3325V30.9257Z" stroke="#81514B" stroke-width="0.958742" stroke-linejoin="round"/>
<path d="M40.7876 39.4603H48.6172L39.5752 23.7374V40.2223H38.8175V22.442H39.7015L49.1475 38.8761V22.442H49.9052V40.2223H40.7876V39.4603Z" stroke="#81514B" stroke-width="0.958742" stroke-linejoin="round"/>
<path d="M54.3686 26.8363C54.3686 25.1937 54.7811 24.0084 55.6062 23.2802C56.4312 22.5521 57.7698 22.188 59.622 22.188C60.9185 22.188 61.9625 22.5267 62.7538 23.204C63.5452 23.8814 64.1177 24.9143 64.4713 26.3029L62.1224 28.0809H60.8848L63.6126 26.0235C63.259 24.8889 62.7454 24.093 62.0719 23.6358C61.4152 23.1786 60.5986 22.95 59.622 22.95C58.9485 22.95 58.376 22.9923 57.9045 23.077C57.4499 23.1617 56.9869 23.331 56.5154 23.585C56.0608 23.8221 55.7156 24.2116 55.4799 24.7534C55.2442 25.2953 55.1263 25.9896 55.1263 26.8363C55.1263 27.5813 55.4631 28.2418 56.1366 28.8175C56.8269 29.3932 57.6604 29.8843 58.637 30.2907C59.6136 30.6971 60.5902 31.112 61.5668 31.5353C62.5602 31.9587 63.3937 32.5006 64.0672 33.161C64.7575 33.8214 65.1027 34.5834 65.1027 35.447C65.1027 37.1404 64.6818 38.4019 63.8399 39.2317C63.0148 40.0614 61.592 40.4763 59.5715 40.4763C57.9214 40.4763 56.6249 40.1461 55.6819 39.4857C54.739 38.8083 54.0908 37.7669 53.7372 36.3614L54.4444 36.0566C54.7811 37.4283 55.3536 38.385 56.1618 38.9269C56.9869 39.4518 58.1234 39.7143 59.5715 39.7143C61.1879 39.7143 62.3834 39.401 63.158 38.7745C63.9493 38.1479 64.345 37.0388 64.345 35.447C64.345 34.7019 63.9998 34.0415 63.3095 33.4658C62.636 32.89 61.8025 32.399 60.8091 31.9926C59.8325 31.5861 58.8559 31.1713 57.8793 30.7479C56.9027 30.3246 56.0692 29.7827 55.3789 29.1223C54.7053 28.4619 54.3686 27.6999 54.3686 26.8363Z" stroke="#81514B" stroke-width="0.958742" stroke-linejoin="round"/>
<path d="M19.0671 79.095H27.9299V65.5443L22.8687 76.4482L17.8074 65.5217V79.7737L17.1326 79.7511V63.9155H17.8074L22.8687 74.8421L27.9299 63.9381L28.6047 63.9155V79.7737L19.0671 79.7511V79.095Z" stroke="#81514B" stroke-width="0.958742" stroke-linejoin="round"/>
<path d="M34.161 79.095H41.4941L36.8828 68.1685L31.979 79.7737H31.2592L36.8828 66.4266L42.5064 79.7737H34.161V79.095Z" stroke="#81514B" stroke-width="0.958742" stroke-linejoin="round"/>
<path d="M45.725 78.3938C44.9152 77.323 44.5103 75.5961 44.5103 73.2133C44.5103 70.8304 44.9152 69.1036 45.725 68.0328C46.5348 66.962 47.8769 66.4266 49.7515 66.4266C51.626 66.4266 52.9757 66.9469 53.8004 67.9875L53.3056 68.44C52.6457 67.5502 51.461 67.1053 49.7515 67.1053C49.0017 67.1053 48.3718 67.1882 47.8619 67.3541C47.3521 67.5049 46.8797 67.799 46.4448 68.2364C46.0249 68.6586 45.71 69.2845 45.5 70.114C45.2901 70.9284 45.1851 71.9615 45.1851 73.2133C45.1851 74.465 45.2901 75.5056 45.5 76.3351C45.71 77.1495 46.0249 77.7754 46.4448 78.2128C46.8797 78.6351 47.3521 78.9291 47.8619 79.095C48.3718 79.2459 49.0017 79.3213 49.7515 79.3213C51.461 79.3213 52.6457 78.8764 53.3056 77.9866L53.8004 78.439C52.9757 79.4796 51.626 79.9999 49.7515 79.9999C47.8769 79.9999 46.5348 79.4645 45.725 78.3938Z" stroke="#81514B" stroke-width="0.958742" stroke-linejoin="round"/>
<path d="M65.2525 79.7737H64.5777V73.2133H57.8294V79.7737H57.1546V66.6528H57.8294V72.5346H64.5777V66.6528H65.2525V79.7737Z" stroke="#81514B" stroke-width="0.958742" stroke-linejoin="round"/>
<path d="M69.522 66.6528H70.1969V79.7737H69.522V66.6528Z" stroke="#81514B" stroke-width="0.958742" stroke-linejoin="round"/>
<path d="M74.4646 79.7737V66.6528H75.1395L82.4726 78.5295V66.6528H83.1474V79.7737H82.4726L75.1395 67.8744V79.7737H74.4646Z" stroke="#81514B" stroke-width="0.958742" stroke-linejoin="round"/>
<path d="M96.153 78.439C95.3282 79.4796 93.9786 79.9999 92.104 79.9999C90.2295 79.9999 88.8873 79.4645 88.0775 78.3938C87.2678 77.323 86.8629 75.5961 86.8629 73.2133C86.8629 70.8304 87.2678 69.1036 88.0775 68.0328C88.8873 66.962 90.2295 66.4266 92.104 66.4266C94.2785 66.4266 95.7556 67.143 96.5354 68.5757L91.0243 73.2133H89.9671L95.6581 68.44C94.9983 67.5502 93.8136 67.1053 92.104 67.1053C91.3542 67.1053 90.7244 67.1882 90.2145 67.3541C89.7046 67.5049 89.2323 67.799 88.7974 68.2364C88.3775 68.6586 88.0626 69.2845 87.8526 70.114C87.6427 70.9284 87.5377 71.9615 87.5377 73.2133C87.5377 74.465 87.6427 75.5056 87.8526 76.3351C88.0626 77.1495 88.3775 77.7754 88.7974 78.2128C89.2323 78.6351 89.7046 78.9291 90.2145 79.095C90.7244 79.2459 91.3542 79.3213 92.104 79.3213C93.8136 79.3213 94.9983 78.8764 95.6581 77.9866L96.153 78.439Z" stroke="#81514B" stroke-width="0.958742" stroke-linejoin="round"/>
<defs>
<clipPath id="clip0_96_5675">
<rect width="41.8219" height="39.8064" fill="white" transform="translate(69.541)"/>
</clipPath>
</defs>
</svg>
