<svg xmlns="http://www.w3.org/2000/svg" width="40" height="40" fill="none"><g filter="url(#a)"><circle cx="20" cy="16" r="16" fill="#8D5953"/><circle cx="20" cy="16" r="15.5" stroke="#EBA448"/></g><path fill="#EBA448" fill-rule="evenodd" d="M18.638 9a5.091 5.091 0 0 0-5.074 5.512A4.454 4.454 0 0 0 15.458 23h9.545a3.818 3.818 0 0 0 1.872-7.147 3.18 3.18 0 0 0-3.507-3.65A5.092 5.092 0 0 0 18.638 9Zm1.723 4.641a.636.636 0 0 0-.9 0l-2.545 2.546a.637.637 0 1 0 .9.9l1.459-1.46v4.191a.637.637 0 0 0 1.273 0v-4.191l1.459 1.46a.637.637 0 1 0 .9-.9L20.36 13.64Z" clip-rule="evenodd"/><defs><filter id="a" width="40" height="40" x="0" y="0" color-interpolation-filters="sRGB" filterUnits="userSpaceOnUse"><feFlood flood-opacity="0" result="BackgroundImageFix"/><feColorMatrix in="SourceAlpha" result="hardAlpha" values="0 0 0 0 0 0 0 0 0 0 0 0 0 0 0 0 0 0 127 0"/><feOffset dy="4"/><feGaussianBlur stdDeviation="2"/><feComposite in2="hardAlpha" operator="out"/><feColorMatrix values="0 0 0 0 0 0 0 0 0 0 0 0 0 0 0 0 0 0 0.25 0"/><feBlend in2="BackgroundImageFix" result="effect1_dropShadow_136_358"/><feBlend in="SourceGraphic" in2="effect1_dropShadow_136_358" result="shape"/></filter></defs></svg>