<svg xmlns="http://www.w3.org/2000/svg" width="40" height="40" fill="none" xmlns:v="https://vecta.io/nano"><g filter="url(#A)"><circle cx="20" cy="16" r="16" fill="#8d5953"/><circle cx="20" cy="16" r="15.5" stroke="#eba448"/></g><path fill-rule="evenodd" d="M22.615 5.595a.75.75 0 0 1 .359.852l-1.992 7.303h7.268a.75.75 0 0 1 .688.451.75.75 0 0 1-.14.811l-10.5 11.25a.75.75 0 0 1-.914.144.75.75 0 0 1-.358-.854l1.992-7.302H11.75a.75.75 0 0 1-.688-.451.75.75 0 0 1 .14-.811l10.5-11.25a.75.75 0 0 1 .913-.143z" fill="#eba448"/><defs><filter id="A" x="0" y="0" width="40" height="40" filterUnits="userSpaceOnUse" color-interpolation-filters="sRGB"><feFlood flood-opacity="0" result="A"/><feColorMatrix in="SourceAlpha" values="0 0 0 0 0 0 0 0 0 0 0 0 0 0 0 0 0 0 127 0" result="B"/><feOffset dy="4"/><feGaussianBlur stdDeviation="2"/><feComposite in2="B" operator="out"/><feColorMatrix values="0 0 0 0 0 0 0 0 0 0 0 0 0 0 0 0 0 0 0.25 0"/><feBlend in2="A"/><feBlend in="SourceGraphic"/></filter></defs></svg>