<svg xmlns="http://www.w3.org/2000/svg" width="40" height="40" fill="none" xmlns:v="https://vecta.io/nano"><g filter="url(#A)"><circle cx="20" cy="16" r="16" fill="#8d5953"/><circle cx="20" cy="16" r="15.5" stroke="#eba448"/></g><path d="M23.724 15.643l-.354.353.354.354 4.078 4.082h.001a2.38 2.38 0 0 1 0 3.367h-.001c-.931.934-2.44.934-3.37 0l-.001-.001-4.078-4.074-.354-.353-.353.353-4.078 4.074v.001c-.93.934-2.438.934-3.369 0h-.001a2.38 2.38 0 0 1 0-3.367h0l4.078-4.082.353-.354-.354-.353-4.078-4.075h0a2.38 2.38 0 0 1 0-3.366l.001-.001c.931-.934 2.44-.934 3.369 0v.001l4.078 4.074.353.353.353-.353 4.078-4.074h.001c.931-.934 2.439-.934 3.37 0l.001.001a2.38 2.38 0 0 1 0 3.366h0l-4.079 4.074z" fill="#eba448" stroke="#eba448"/><defs><filter id="A" x="0" y="0" width="40" height="40" filterUnits="userSpaceOnUse" color-interpolation-filters="sRGB"><feFlood flood-opacity="0" result="A"/><feColorMatrix in="SourceAlpha" values="0 0 0 0 0 0 0 0 0 0 0 0 0 0 0 0 0 0 127 0" result="B"/><feOffset dy="4"/><feGaussianBlur stdDeviation="2"/><feComposite in2="B" operator="out"/><feColorMatrix values="0 0 0 0 0 0 0 0 0 0 0 0 0 0 0 0 0 0 0.25 0"/><feBlend in2="A"/><feBlend in="SourceGraphic"/></filter></defs></svg>