<svg xmlns="http://www.w3.org/2000/svg" width="40" height="40" fill="none"><g filter="url(#a)"><circle cx="20" cy="16" r="16" fill="#8D5953"/><circle cx="20" cy="16" r="15.5" stroke="#EBA448"/></g><path fill="#EBA448" fill-rule="evenodd" d="M13.5 10a.5.5 0 0 1 .5.5v.36l1.225-.307a6.5 6.5 0 0 1 4.484.492l.072.036a5.5 5.5 0 0 0 3.72.435l2.072-.488a.5.5 0 0 1 .612.54 31.855 31.855 0 0 0 .003 6.891.5.5 0 0 1-.383.542l-2.076.488a6.5 6.5 0 0 1-4.396-.513l-.072-.036a5.5 5.5 0 0 0-3.793-.417L14 18.89v3.61a.5.5 0 0 1-1 0v-12a.498.498 0 0 1 .5-.5Z" clip-rule="evenodd"/><defs><filter id="a" width="40" height="40" x="0" y="0" color-interpolation-filters="sRGB" filterUnits="userSpaceOnUse"><feFlood flood-opacity="0" result="BackgroundImageFix"/><feColorMatrix in="SourceAlpha" result="hardAlpha" values="0 0 0 0 0 0 0 0 0 0 0 0 0 0 0 0 0 0 127 0"/><feOffset dy="4"/><feGaussianBlur stdDeviation="2"/><feComposite in2="hardAlpha" operator="out"/><feColorMatrix values="0 0 0 0 0 0 0 0 0 0 0 0 0 0 0 0 0 0 0.25 0"/><feBlend in2="BackgroundImageFix" result="effect1_dropShadow_135_172"/><feBlend in="SourceGraphic" in2="effect1_dropShadow_135_172" result="shape"/></filter></defs></svg>